<?xml version="1.0" standalone="no"?>
<!DOCTYPE svg PUBLIC "-//W3C//DTD SVG 20010904//EN"
 "http://www.w3.org/TR/2001/REC-SVG-20010904/DTD/svg10.dtd">
<svg version="1.0" xmlns="http://www.w3.org/2000/svg"
 width="237.000000pt" height="124.000000pt" viewBox="0 0 237.000000 124.000000"
 preserveAspectRatio="xMidYMid meet">
<g transform="translate(0.000000,124.000000) scale(0.100000,-0.100000)"
fill="white" stroke="none">
<path d="M620 915 c0 -3 2 -5 5 -5 3 0 5 2 5 5 0 3 -2 5 -5 5 -3 0 -5 -2 -5
-5z"/>
<path d="M527 833 c-66 -93 -93 -203 -76 -320 18 -127 102 -263 135 -219 13
19 10 55 -6 66 -4 3 -20 30 -36 60 -57 108 -40 275 39 381 13 19 18 35 13 53
-9 38 -30 32 -69 -21z"/>
<path d="M1379 788 c-92 -48 -101 -69 -97 -230 3 -141 9 -155 69 -167 29 -6
35 -12 40 -41 3 -19 25 -66 48 -103 33 -54 41 -75 36 -97 -8 -38 2 -42 61 -22
78 27 78 27 -10 166 -31 50 -56 98 -56 108 0 16 50 38 88 38 18 0 15 22 -14
103 -14 39 -41 117 -60 171 -18 54 -35 101 -37 103 -3 2 -33 -11 -68 -29z
m119 -249 c3 -28 -16 -43 -43 -33 -15 6 -21 45 -8 58 16 16 48 1 51 -25z m-68
-13 c0 -16 -18 -31 -27 -22 -8 8 5 36 17 36 5 0 10 -6 10 -14z"/>
<path d="M617 758 c-61 -84 -60 -280 2 -367 22 -31 24 -31 42 -15 21 19 25 49
8 60 -64 39 -59 222 8 296 15 17 15 20 -2 38 -24 27 -30 26 -58 -12z"/>
<path d="M948 719 c-18 -10 -27 -89 -10 -89 4 0 4 -41 -1 -90 -12 -116 -8
-120 87 -119 125 0 204 13 221 35 19 26 21 212 2 238 -23 32 -255 51 -299 25z
m291 -98 c16 -29 13 -77 -5 -95 -12 -13 -39 -16 -127 -16 l-112 0 2 62 c1 35
2 63 3 63 0 0 51 2 114 4 106 2 115 1 125 -18z"/>
<path d="M1030 570 l0 -49 90 2 90 2 0 48 0 47 -90 0 -90 0 0 -50z"/>
<path d="M713 688 c-42 -54 -41 -166 2 -223 23 -29 65 12 48 47 -24 47 -25 70
-7 110 24 53 -11 107 -43 66z"/>
<path d="M805 600 c-7 -22 2 -60 14 -60 4 0 16 9 26 20 17 19 17 21 0 40 -10
11 -22 20 -26 20 -4 0 -11 -9 -14 -20z"/>
</g>
</svg>
