<?xml version="1.0" standalone="no"?>
<!DOCTYPE svg PUBLIC "-//W3C//DTD SVG 20010904//EN"
 "http://www.w3.org/TR/2001/REC-SVG-20010904/DTD/svg10.dtd">
<svg version="1.0" xmlns="http://www.w3.org/2000/svg"
 width="142.000000pt" height="137.000000pt" viewBox="0 0 142.000000 137.000000"
 preserveAspectRatio="xMidYMid meet">
<g transform="translate(0.000000,137.000000) scale(0.100000,-0.100000)"
fill="white" stroke="none">
<path d="M542 1240 c-198 -53 -350 -199 -418 -400 -28 -83 -26 -262 5 -350 63
-180 196 -311 383 -377 93 -34 249 -38 342 -9 145 43 261 128 337 244 213 326
64 752 -308 883 -87 31 -246 35 -341 9z m146 -92 c3 -66 2 -68 -37 -107 -48
-48 -74 -123 -91 -263 -24 -206 34 -469 110 -493 14 -4 18 -20 19 -80 l2 -75
-30 0 c-21 0 -38 10 -60 35 -26 30 -31 44 -31 85 0 42 -5 55 -38 93 -35 40
-40 53 -52 135 -18 130 -8 382 20 486 38 141 116 261 164 254 19 -3 21 -11 24
-70z m108 61 c79 -15 146 -44 221 -96 219 -153 291 -435 174 -677 -81 -168
-280 -305 -443 -306 l-38 0 0 74 0 73 48 7 c119 16 240 107 295 224 29 62 32
75 32 167 0 87 -4 107 -27 157 -53 114 -178 210 -294 226 l-49 7 -3 78 c-3 87
-8 83 84 66z m-230 -44 c-29 -37 -56 -95 -77 -163 -8 -24 -59 26 -59 57 0 14
-7 36 -15 48 -11 16 -12 23 -2 31 32 25 139 69 174 71 7 1 -2 -19 -21 -44z
m123 -223 c2 -49 -2 -68 -18 -88 -50 -63 -53 -253 -7 -348 22 -45 26 -65 24
-125 -3 -80 -15 -90 -46 -38 -97 161 -88 561 16 680 16 18 16 18 23 0 3 -10 7
-46 8 -81z m161 70 c65 -28 141 -101 181 -174 32 -60 34 -68 34 -163 0 -83 -4
-108 -23 -149 -50 -109 -137 -182 -254 -213 -37 -10 -69 -15 -72 -13 -2 3 -6
41 -7 85 l-2 80 49 17 c93 33 154 129 139 218 -10 60 -56 124 -107 149 -24 11
-52 21 -61 21 -15 0 -17 12 -17 86 l0 87 48 -6 c26 -3 67 -14 92 -25z m-390
-142 c-5 -29 -11 -80 -11 -114 -1 -33 -4 -51 -6 -38 -2 12 -16 30 -30 40 -52
36 -60 48 -55 81 4 26 14 37 55 61 28 16 53 28 54 26 2 -1 -1 -27 -7 -56z
m-11 -257 c1 -79 17 -198 28 -216 3 -5 0 -8 -8 -5 -8 2 -31 36 -52 74 -35 65
-40 70 -71 70 -54 0 -86 27 -86 73 0 37 2 39 38 45 20 3 58 6 83 6 32 0 49 5
53 15 10 28 14 15 15 -62z"/>
</g>
</svg>
