<?xml version="1.0" standalone="no"?>
<!DOCTYPE svg PUBLIC "-//W3C//DTD SVG 20010904//EN"
 "http://www.w3.org/TR/2001/REC-SVG-20010904/DTD/svg10.dtd">
<svg version="1.0" xmlns="http://www.w3.org/2000/svg"
 width="266.000000pt" height="149.000000pt" viewBox="0 0 266.000000 149.000000"
 preserveAspectRatio="xMidYMid meet">
<g transform="translate(0.000000,149.000000) scale(0.100000,-0.100000)"
fill="#ffffff" stroke="none">
<path d="M1032 1400 c-18 -17 -22 -32 -22 -77 0 -47 -4 -60 -30 -89 -36 -42
-38 -54 -44 -289 -3 -112 -12 -221 -21 -265 -8 -41 -15 -110 -15 -152 0 -90
-11 -125 -40 -130 -11 -2 -22 -7 -23 -13 -1 -7 199 -11 581 -13 465 -2 583 0
580 10 -3 8 -27 14 -62 16 -50 3 -57 5 -49 20 8 18 8 131 -1 167 -9 36 -48 45
-199 45 -138 0 -143 1 -152 22 -7 16 -20 24 -42 26 -32 3 -33 4 -74 135 -45
141 -45 143 -34 170 6 14 2 17 -19 17 -18 0 -26 -5 -26 -17 0 -10 20 -83 44
-163 24 -80 47 -162 51 -182 l6 -38 189 0 c195 0 220 -3 220 -26 0 -11 -6 -11
-27 -3 -14 5 -39 7 -54 4 -30 -7 -79 -57 -79 -81 0 -10 -13 -14 -50 -14 -45 0
-51 3 -65 29 -19 37 -61 71 -89 71 -33 0 -85 -37 -102 -73 -14 -30 -14 -37 0
-70 l15 -37 -63 0 c-57 0 -64 2 -74 25 -6 13 -23 27 -38 31 -26 7 -26 9 -20
60 20 178 22 158 -20 247 -33 72 -38 91 -39 157 0 85 -8 79 98 67 45 -6 57 -4
57 6 0 9 -22 18 -64 25 -58 9 -116 35 -116 51 0 3 4 12 9 20 7 11 14 9 37 -8
37 -27 190 -59 206 -43 17 17 8 22 -84 38 -47 9 -89 19 -95 23 -15 10 -93 117
-93 127 0 5 10 14 22 19 14 7 28 29 39 65 24 72 24 73 -10 93 -40 23 -92 22
-119 -3z m96 -22 c10 -10 6 -15 -20 -24 -43 -14 -48 -34 -9 -34 17 0 31 -3 31
-6 0 -18 -23 -44 -40 -44 -10 0 -22 -4 -25 -10 -3 -5 -10 -10 -16 -10 -13 0
-11 114 3 128 16 16 61 15 76 0z m-43 -195 c39 -40 43 -54 20 -73 -13 -10 -19
-10 -35 5 -17 16 -20 16 -26 2 -3 -10 6 -26 26 -44 36 -32 46 -70 42 -148 l-4
-55 -55 2 c-81 4 -81 -18 -1 -29 l63 -8 36 -75 c28 -58 33 -76 22 -78 -34 -8
-60 11 -100 73 -29 44 -47 63 -58 59 -11 -5 -3 -22 35 -79 l49 -73 2 -104 c1
-59 -4 -116 -11 -133 l-12 -30 -14 26 c-7 15 -25 30 -39 33 -22 6 -25 12 -25
49 0 42 21 154 36 191 6 16 4 18 -12 13 -10 -3 -30 -9 -43 -13 l-23 -7 6 109
c4 60 8 170 9 244 2 86 7 143 15 158 19 33 55 28 97 -15z m-104 -574 c-7 -89
-16 -124 -34 -127 -15 -3 -17 6 -17 81 0 86 5 97 40 92 11 -2 14 -13 11 -46z
m201 -14 c-10 -157 -52 -165 -52 -10 0 58 5 67 35 63 18 -3 20 -9 17 -53z
m350 -75 c24 -25 29 -36 24 -58 -21 -88 -146 -79 -146 11 0 33 18 58 50 70 29
11 42 7 72 -23z m291 19 c24 -11 47 -47 47 -73 0 -29 -41 -66 -73 -66 -79 0
-106 111 -34 140 30 12 32 12 60 -1z m-826 -110 c55 -16 48 -29 -16 -29 -34 0
-61 4 -61 9 0 25 14 42 29 35 9 -3 30 -10 48 -15z m695 4 c30 -27 21 -33 -57
-33 -72 0 -75 1 -63 20 21 32 90 40 120 13z m-472 -19 c12 -12 5 -14 -50 -14
l-65 1 24 19 c25 22 64 19 91 -6z"/>
<path d="M1635 1068 c-10 -26 2 -55 17 -40 8 8 8 18 1 34 -10 21 -12 21 -18 6z"/>
<path d="M1530 1022 c0 -5 6 -16 13 -27 10 -13 16 -15 21 -6 4 6 2 18 -4 26
-13 16 -30 20 -30 7z"/>
<path d="M1721 1016 c-9 -10 -9 -16 -1 -21 12 -7 40 11 40 26 0 14 -26 10 -39
-5z"/>
<path d="M1623 1002 c-28 -4 -63 -47 -63 -77 0 -56 70 -96 121 -69 29 15 39
33 39 70 0 52 -42 85 -97 76z m55 -44 c7 -7 12 -21 12 -33 0 -29 -19 -45 -52
-45 -36 0 -56 36 -39 69 13 23 59 29 79 9z"/>
<path d="M1495 930 c-3 -6 1 -13 10 -16 19 -8 30 0 20 15 -8 14 -22 14 -30 1z"/>
<path d="M1756 931 c-3 -5 0 -14 8 -20 10 -8 16 -8 25 3 9 11 8 15 -5 20 -20
8 -22 8 -28 -3z"/>
<path d="M1533 835 c-10 -27 6 -30 30 -7 l21 22 -22 0 c-12 0 -25 -7 -29 -15z"/>
<path d="M1720 835 c0 -14 25 -27 34 -18 11 11 6 21 -14 26 -12 3 -20 0 -20
-8z"/>
<path d="M1634 806 c-4 -10 -2 -22 4 -28 8 -8 13 -7 18 6 4 10 2 22 -4 28 -8
8 -13 7 -18 -6z"/>
<path d="M1695 321 c-29 -13 -68 -58 -56 -65 5 -4 26 5 47 19 49 33 97 33 146
-1 39 -27 53 -28 43 -3 -18 43 -127 73 -180 50z"/>
<path d="M1256 311 c-9 -14 34 -41 65 -41 29 0 78 34 66 46 -4 4 -18 2 -31 -6
-23 -12 -40 -11 -77 5 -10 3 -20 2 -23 -4z"/>
<path d="M1205 270 c-10 -17 22 -47 70 -65 52 -20 109 -8 145 30 34 36 20 39
-38 9 -45 -23 -54 -25 -86 -14 -19 6 -46 20 -60 31 -16 13 -27 16 -31 9z"/>
<path d="M1718 244 c-16 -8 -28 -19 -28 -25 0 -7 10 -8 28 -4 32 9 49 9 80 0
33 -11 28 12 -8 30 -35 18 -38 18 -72 -1z"/>
</g>
</svg>
